<svg width="250" height="250" viewBox="0 0 250 250" fill="none" xmlns="http://www.w3.org/2000/svg">
<path d="M186.364 0H63.6364C28.491 0 0 28.491 0 63.6364V186.364C0 221.509 28.491 250 63.6364 250H186.364C221.509 250 250 221.509 250 186.364V63.6364C250 28.491 221.509 0 186.364 0Z" fill="url(#paint0_linear_5_23)"/>
<path fill-rule="evenodd" clip-rule="evenodd" d="M132.144 168.447L121.41 151.771L114.374 166.858L125.108 183.535L132.144 168.447Z" fill="#00BE8E"/>
<path fill-rule="evenodd" clip-rule="evenodd" d="M198.918 83.0744L180.675 54.7541L173.639 69.842L191.882 98.1619L198.918 83.0744Z" fill="#00BE8E"/>
<path fill-rule="evenodd" clip-rule="evenodd" d="M170.041 48.9492L116.106 48.8809L109.07 63.9688L163.006 64.0369L170.041 48.9492Z" fill="#00BE8E"/>
<path fill-rule="evenodd" clip-rule="evenodd" d="M88.4012 100.511L99.2387 117.348L92.2029 132.436L81.3654 115.599L88.4012 100.511Z" fill="#00BE8E"/>
<path fill-rule="evenodd" clip-rule="evenodd" d="M99.2375 117.347H139.693L132.657 132.435H92.2017L99.2375 117.347Z" fill="#00BE8E"/>
<path fill-rule="evenodd" clip-rule="evenodd" d="M58.1676 49.1194C57.4892 49.1313 56.9864 49.4607 56.7571 49.9299L49.7215 65.0176C49.9506 64.5483 50.4534 64.2188 51.1322 64.2074L58.1676 49.1194Z" fill="#00BE8E"/>
<path fill-rule="evenodd" clip-rule="evenodd" d="M76.9511 82.929C76.9511 82.929 67.8988 83.0761 56.8346 83.0761L49.7991 98.1642C60.8631 98.1642 69.9153 98.0165 69.9153 98.0165L76.9511 82.929Z" fill="#00BE8E"/>
<path fill-rule="evenodd" clip-rule="evenodd" d="M56.8346 83.0756C48.7819 83.0756 42.7427 83.0756 39.5007 83.0756L32.4651 98.1636C35.7071 98.1636 41.7463 98.1636 49.7991 98.1636L56.8346 83.0756Z" fill="#00BE8E"/>
<path fill-rule="evenodd" clip-rule="evenodd" d="M39.51 83.0745C38.8284 83.0745 38.3249 83.3875 38.0969 83.8438L31.0613 98.9319C31.2894 98.4756 31.7929 98.162 32.4744 98.162L39.51 83.0745Z" fill="#00BE8E"/>
<path fill-rule="evenodd" clip-rule="evenodd" d="M139.728 185.528C140.499 185.528 141.112 185.093 141.411 184.498L134.376 199.585C134.076 200.18 133.464 200.616 132.692 200.616L139.728 185.528Z" fill="white"/>
<path fill-rule="evenodd" clip-rule="evenodd" d="M139.728 185.528C140.499 185.528 141.112 185.093 141.411 184.498L134.376 199.585C134.076 200.18 133.464 200.616 132.692 200.616L139.728 185.528Z" fill="url(#paint1_linear_5_23)"/>
<path fill-rule="evenodd" clip-rule="evenodd" d="M69.7091 134.409L98.8494 179.706L91.8136 194.793L62.6733 149.497L69.7091 134.409Z" fill="white"/>
<path fill-rule="evenodd" clip-rule="evenodd" d="M69.7091 134.409L98.8494 179.706L91.8136 194.793L62.6733 149.497L69.7091 134.409Z" fill="url(#paint2_linear_5_23)"/>
<path fill-rule="evenodd" clip-rule="evenodd" d="M109.491 185.518L122.923 185.528L115.888 200.616L102.456 200.606L109.491 185.518Z" fill="white"/>
<path fill-rule="evenodd" clip-rule="evenodd" d="M109.491 185.518L122.923 185.528L115.888 200.616L102.456 200.606L109.491 185.518Z" fill="url(#paint3_linear_5_23)"/>
<path fill-rule="evenodd" clip-rule="evenodd" d="M122.923 185.528H139.728L132.692 200.616H115.888L122.923 185.528Z" fill="white"/>
<path fill-rule="evenodd" clip-rule="evenodd" d="M122.923 185.528H139.728L132.692 200.616H115.888L122.923 185.528Z" fill="url(#paint4_linear_5_23)"/>
<path fill-rule="evenodd" clip-rule="evenodd" d="M37.9991 83.5C37.7887 83.9216 37.813 84.4653 38.1488 84.9972L31.1132 100.085C30.7774 99.5528 30.7531 99.0097 30.9636 98.5881L37.9991 83.5Z" fill="white"/>
<path fill-rule="evenodd" clip-rule="evenodd" d="M37.9991 83.5C37.7887 83.9216 37.813 84.4653 38.1488 84.9972L31.1132 100.085C30.7774 99.5528 30.7531 99.0097 30.9636 98.5881L37.9991 83.5Z" fill="url(#paint5_linear_5_23)"/>
<path fill-rule="evenodd" clip-rule="evenodd" d="M38.1488 84.9971C42.2715 91.5284 54.9038 111.395 69.7091 134.409L62.6733 149.497C47.8682 126.483 35.2359 106.616 31.1132 100.085L38.1488 84.9971Z" fill="white"/>
<path fill-rule="evenodd" clip-rule="evenodd" d="M38.1488 84.9971C42.2715 91.5284 54.9038 111.395 69.7091 134.409L62.6733 149.497C47.8682 126.483 35.2359 106.616 31.1132 100.085L38.1488 84.9971Z" fill="url(#paint6_linear_5_23)"/>
<path fill-rule="evenodd" clip-rule="evenodd" d="M98.8494 179.706C101.178 183.326 105.187 185.515 109.491 185.518L102.456 200.606C98.1512 200.603 94.1426 198.414 91.8137 194.793L98.8494 179.706Z" fill="white"/>
<path fill-rule="evenodd" clip-rule="evenodd" d="M98.8494 179.706C101.178 183.326 105.187 185.515 109.491 185.518L102.456 200.606C98.1512 200.603 94.1426 198.414 91.8137 194.793L98.8494 179.706Z" fill="url(#paint7_linear_5_23)"/>
<path fill-rule="evenodd" clip-rule="evenodd" d="M141.411 184.498C141.688 183.948 141.698 183.264 141.319 182.661L134.283 197.749C134.662 198.352 134.652 199.036 134.376 199.585L141.411 184.498Z" fill="white"/>
<path fill-rule="evenodd" clip-rule="evenodd" d="M141.411 184.498C141.688 183.948 141.698 183.264 141.319 182.661L134.283 197.749C134.662 198.352 134.652 199.036 134.376 199.585L141.411 184.498Z" fill="url(#paint8_linear_5_23)"/>
<path fill-rule="evenodd" clip-rule="evenodd" d="M141.319 182.661C139.322 179.486 135.874 174.03 132.059 168.102L125.023 183.189C128.839 189.117 132.286 194.574 134.283 197.749L141.319 182.661Z" fill="white"/>
<path fill-rule="evenodd" clip-rule="evenodd" d="M141.319 182.661C139.322 179.486 135.874 174.03 132.059 168.102L125.023 183.189C128.839 189.117 132.286 194.574 134.283 197.749L141.319 182.661Z" fill="url(#paint9_linear_5_23)"/>
<path fill-rule="evenodd" clip-rule="evenodd" d="M191.571 134.681C185.627 125.449 180.764 117.774 180.764 117.624L173.728 132.713C173.728 132.861 178.591 140.538 184.535 149.769L191.571 134.681Z" fill="#00BE8E"/>
<path fill-rule="evenodd" clip-rule="evenodd" d="M180.675 54.7553C178.346 51.1407 174.343 48.9542 170.044 48.9488L163.009 64.0363C167.307 64.042 171.311 66.2284 173.639 69.8432L180.675 54.7553Z" fill="#00BE8E"/>
<path fill-rule="evenodd" clip-rule="evenodd" d="M77.5591 83.3755C77.5591 83.3755 82.4358 91.2505 88.3966 100.511L81.3608 115.599C75.4006 106.339 70.5233 98.4631 70.5233 98.4631L77.5591 83.3755Z" fill="#00BE8E"/>
<path fill-rule="evenodd" clip-rule="evenodd" d="M139.693 117.348C161.943 117.348 180.148 117.268 180.148 117.171L173.112 132.259C173.112 132.356 154.907 132.436 132.657 132.436L139.693 117.348Z" fill="#00BE8E"/>
<path fill-rule="evenodd" clip-rule="evenodd" d="M121.42 151.769L161.898 151.616L154.862 166.704L114.385 166.857L121.42 151.769Z" fill="#00BE8E"/>
<path fill-rule="evenodd" clip-rule="evenodd" d="M121.42 151.769L161.898 151.616L154.862 166.704L114.385 166.857L121.42 151.769Z" fill="url(#paint10_linear_5_23)"/>
<path fill-rule="evenodd" clip-rule="evenodd" d="M161.898 151.616L198.907 151.477L191.872 166.564L154.862 166.704L161.898 151.616Z" fill="#00BE8E"/>
<path fill-rule="evenodd" clip-rule="evenodd" d="M161.898 151.616L198.907 151.477L191.872 166.564L154.862 166.704L161.898 151.616Z" fill="url(#paint11_linear_5_23)"/>
<path fill-rule="evenodd" clip-rule="evenodd" d="M200.498 148.548L191.568 134.679L184.532 149.767L193.462 163.636L200.498 148.548Z" fill="#00BE8E"/>
<path fill-rule="evenodd" clip-rule="evenodd" d="M200.498 148.548L191.568 134.679L184.532 149.767L193.462 163.636L200.498 148.548Z" fill="url(#paint12_linear_5_23)"/>
<path fill-rule="evenodd" clip-rule="evenodd" d="M198.907 151.477C199.688 151.473 200.306 151.023 200.606 150.414L193.57 165.502C193.27 166.111 192.652 166.561 191.872 166.564L198.907 151.477Z" fill="#00BE8E"/>
<path fill-rule="evenodd" clip-rule="evenodd" d="M198.907 151.477C199.688 151.473 200.306 151.023 200.606 150.414L193.57 165.502C193.27 166.111 192.652 166.561 191.872 166.564L198.907 151.477Z" fill="url(#paint13_linear_5_23)"/>
<path fill-rule="evenodd" clip-rule="evenodd" d="M200.606 150.414C200.882 149.851 200.888 149.154 200.498 148.548L193.462 163.636C193.852 164.241 193.847 164.939 193.57 165.502L200.606 150.414Z" fill="#00BE8E"/>
<path fill-rule="evenodd" clip-rule="evenodd" d="M200.606 150.414C200.882 149.851 200.888 149.154 200.498 148.548L193.462 163.636C193.852 164.241 193.847 164.939 193.57 165.502L200.606 150.414Z" fill="url(#paint14_linear_5_23)"/>
<path fill-rule="evenodd" clip-rule="evenodd" d="M200.83 117.271L217.43 117.206L210.394 132.294L193.794 132.359L200.83 117.271Z" fill="#00BE8E"/>
<path fill-rule="evenodd" clip-rule="evenodd" d="M200.83 117.271L217.43 117.206L210.394 132.294L193.794 132.359L200.83 117.271Z" fill="url(#paint15_linear_5_23)"/>
<path fill-rule="evenodd" clip-rule="evenodd" d="M219.019 114.278L198.92 83.075L191.885 98.1625L211.984 129.365L219.019 114.278Z" fill="#00BE8E"/>
<path fill-rule="evenodd" clip-rule="evenodd" d="M219.019 114.278L198.92 83.075L191.885 98.1625L211.984 129.365L219.019 114.278Z" fill="url(#paint16_linear_5_23)"/>
<path fill-rule="evenodd" clip-rule="evenodd" d="M180.761 117.623C180.761 117.467 189.361 117.316 200.83 117.271L193.794 132.359C182.325 132.404 173.726 132.555 173.726 132.711L180.761 117.623Z" fill="#00BE8E"/>
<path fill-rule="evenodd" clip-rule="evenodd" d="M180.761 117.623C180.761 117.467 189.361 117.316 200.83 117.271L193.794 132.359C182.325 132.404 173.726 132.555 173.726 132.711L180.761 117.623Z" fill="url(#paint17_linear_5_23)"/>
<path fill-rule="evenodd" clip-rule="evenodd" d="M217.43 117.206C218.21 117.203 218.828 116.752 219.127 116.143L212.092 131.231C211.793 131.84 211.174 132.29 210.394 132.294L217.43 117.206Z" fill="#00BE8E"/>
<path fill-rule="evenodd" clip-rule="evenodd" d="M217.43 117.206C218.21 117.203 218.828 116.752 219.127 116.143L212.092 131.231C211.793 131.84 211.174 132.29 210.394 132.294L217.43 117.206Z" fill="url(#paint18_linear_5_23)"/>
<path fill-rule="evenodd" clip-rule="evenodd" d="M219.127 116.143C219.404 115.581 219.409 114.884 219.019 114.278L211.984 129.365C212.373 129.971 212.369 130.669 212.092 131.231L219.127 116.143Z" fill="#00BE8E"/>
<path fill-rule="evenodd" clip-rule="evenodd" d="M219.127 116.143C219.404 115.581 219.409 114.884 219.019 114.278L211.984 129.365C212.373 129.971 212.369 130.669 212.092 131.231L219.127 116.143Z" fill="url(#paint19_linear_5_23)"/>
<path fill-rule="evenodd" clip-rule="evenodd" d="M56.7557 49.9284C56.5442 50.3615 56.566 50.9138 56.8978 51.4453L49.8624 66.5329C49.5304 66.0017 49.5086 65.4494 49.7201 65.0165L56.7557 49.9284Z" fill="#00BE8E"/>
<path fill-rule="evenodd" clip-rule="evenodd" d="M56.7557 49.9284C56.5442 50.3615 56.566 50.9138 56.8978 51.4453L49.8624 66.5329C49.5304 66.0017 49.5086 65.4494 49.7201 65.0165L56.7557 49.9284Z" fill="url(#paint20_linear_5_23)"/>
<path fill-rule="evenodd" clip-rule="evenodd" d="M56.8978 51.4453C58.7489 54.4091 62.2557 59.9522 66.2659 66.1795L59.2307 81.267C55.2203 75.0403 51.7132 69.4971 49.8624 66.5329L56.8978 51.4453Z" fill="#00BE8E"/>
<path fill-rule="evenodd" clip-rule="evenodd" d="M56.8978 51.4453C58.7489 54.4091 62.2557 59.9522 66.2659 66.1795L59.2307 81.267C55.2203 75.0403 51.7132 69.4971 49.8624 66.5329L56.8978 51.4453Z" fill="url(#paint21_linear_5_23)"/>
<path fill-rule="evenodd" clip-rule="evenodd" d="M66.2659 66.1796C72.1461 75.3097 76.9574 82.9273 76.9574 82.9273L69.9216 98.0154C69.9216 98.0154 65.1108 90.3977 59.2307 81.2671L66.2659 66.1796Z" fill="#00BE8E"/>
<path fill-rule="evenodd" clip-rule="evenodd" d="M66.2659 66.1796C72.1461 75.3097 76.9574 82.9273 76.9574 82.9273L69.9216 98.0154C69.9216 98.0154 65.1108 90.3977 59.2307 81.2671L66.2659 66.1796Z" fill="url(#paint22_linear_5_23)"/>
<path fill-rule="evenodd" clip-rule="evenodd" d="M116.111 48.8798C79.5256 48.8332 63.7949 49.0202 58.1665 49.118L51.1307 64.2057C56.7592 64.108 72.4898 63.921 109.075 63.9676L116.111 48.8798Z" fill="#00BE8E"/>
<path fill-rule="evenodd" clip-rule="evenodd" d="M116.111 48.8798C79.5256 48.8332 63.7949 49.0202 58.1665 49.118L51.1307 64.2057C56.7592 64.108 72.4898 63.921 109.075 63.9676L116.111 48.8798Z" fill="url(#paint23_linear_5_23)"/>
<path fill-rule="evenodd" clip-rule="evenodd" d="M180.152 117.169C180.152 116.944 159.198 84.3256 158.593 83.6102L151.557 98.6983C152.163 99.4136 173.117 132.031 173.117 132.256L180.152 117.169Z" fill="#00BE8E"/>
<path fill-rule="evenodd" clip-rule="evenodd" d="M180.152 117.169C180.152 116.944 159.198 84.3256 158.593 83.6102L151.557 98.6983C152.163 99.4136 173.117 132.031 173.117 132.256L180.152 117.169Z" fill="url(#paint24_linear_5_23)"/>
<path fill-rule="evenodd" clip-rule="evenodd" d="M158.593 83.6102C158.167 83.1051 155.847 83.075 117.853 83.075L110.818 98.1625C148.811 98.1625 151.131 98.1932 151.557 98.6983L158.593 83.6102Z" fill="#00BE8E"/>
<path fill-rule="evenodd" clip-rule="evenodd" d="M158.593 83.6102C158.167 83.1051 155.847 83.075 117.853 83.075L110.818 98.1625C148.811 98.1625 151.131 98.1932 151.557 98.6983L158.593 83.6102Z" fill="url(#paint25_linear_5_23)"/>
<path fill-rule="evenodd" clip-rule="evenodd" d="M117.853 83.075C91.862 83.075 77.5659 83.3733 77.5659 83.3733L70.5302 98.4614C70.5302 98.4614 84.8262 98.1625 110.818 98.1625L117.853 83.075Z" fill="#00BE8E"/>
<path fill-rule="evenodd" clip-rule="evenodd" d="M117.853 83.075C91.862 83.075 77.5659 83.3733 77.5659 83.3733L70.5302 98.4614C70.5302 98.4614 84.8262 98.1625 110.818 98.1625L117.853 83.075Z" fill="url(#paint26_linear_5_23)"/>
<path fill-rule="evenodd" clip-rule="evenodd" d="M58.1659 49.118C56.8608 49.1407 56.2061 50.3381 56.8977 51.4454C58.7483 54.4091 62.2557 59.9523 66.2659 66.1795C72.146 75.3097 76.9568 82.9273 76.9568 82.9273C76.9568 82.9273 67.9045 83.075 56.8409 83.075C48.7878 83.075 42.7486 83.075 39.5066 83.075C38.196 83.075 37.5436 84.233 38.2432 85.3415C42.3659 91.8722 54.9981 111.739 69.8034 134.753L98.9437 180.05C101.273 183.67 105.281 185.859 109.585 185.862L123.018 185.872H139.822C141.306 185.872 142.203 184.261 141.413 183.005C139.416 179.83 135.968 174.374 132.153 168.446L121.42 151.769L161.897 151.616L198.907 151.477C200.408 151.47 201.309 149.81 200.498 148.549L191.568 134.679C185.624 125.448 180.761 117.772 180.761 117.623C180.761 117.467 189.36 117.316 200.829 117.271L217.43 117.206C218.93 117.2 219.831 115.539 219.019 114.278L198.92 83.075L180.678 54.7547C178.349 51.1401 174.345 48.9536 170.047 48.9482L116.111 48.8798C79.525 48.8332 63.7949 49.0202 58.1659 49.118ZM77.5659 83.3733C77.5659 83.3733 82.4426 91.2489 88.4034 100.509L99.2409 117.346H139.697C161.947 117.346 180.152 117.266 180.152 117.169C180.152 116.944 159.198 84.3256 158.593 83.6102C158.166 83.1051 155.846 83.075 117.853 83.075C91.8614 83.075 77.5659 83.3733 77.5659 83.3733Z" fill="white"/>
<defs>
<linearGradient id="paint0_linear_5_23" x1="125" y1="0" x2="125" y2="250" gradientUnits="userSpaceOnUse">
<stop stop-color="#1B1B1B"/>
<stop offset="1" stop-color="#101010"/>
</linearGradient>
<linearGradient id="paint1_linear_5_23" x1="50.8545" y1="77.6444" x2="151.612" y2="170.581" gradientUnits="userSpaceOnUse">
<stop stop-color="#00BE8E"/>
<stop offset="0.280919" stop-color="#00BE8E"/>
<stop offset="1" stop-color="#375DFB"/>
</linearGradient>
<linearGradient id="paint2_linear_5_23" x1="50.8545" y1="77.6444" x2="151.612" y2="170.581" gradientUnits="userSpaceOnUse">
<stop stop-color="#00BE8E"/>
<stop offset="0.280919" stop-color="#00BE8E"/>
<stop offset="1" stop-color="#375DFB"/>
</linearGradient>
<linearGradient id="paint3_linear_5_23" x1="50.8545" y1="77.6443" x2="151.612" y2="170.581" gradientUnits="userSpaceOnUse">
<stop stop-color="#00BE8E"/>
<stop offset="0.280919" stop-color="#00BE8E"/>
<stop offset="1" stop-color="#375DFB"/>
</linearGradient>
<linearGradient id="paint4_linear_5_23" x1="50.8546" y1="77.6444" x2="151.612" y2="170.581" gradientUnits="userSpaceOnUse">
<stop stop-color="#00BE8E"/>
<stop offset="0.280919" stop-color="#00BE8E"/>
<stop offset="1" stop-color="#375DFB"/>
</linearGradient>
<linearGradient id="paint5_linear_5_23" x1="50.8545" y1="77.6443" x2="151.612" y2="170.581" gradientUnits="userSpaceOnUse">
<stop stop-color="#00BE8E"/>
<stop offset="0.280919" stop-color="#00BE8E"/>
<stop offset="1" stop-color="#375DFB"/>
</linearGradient>
<linearGradient id="paint6_linear_5_23" x1="50.8545" y1="77.6443" x2="151.612" y2="170.581" gradientUnits="userSpaceOnUse">
<stop stop-color="#00BE8E"/>
<stop offset="0.280919" stop-color="#00BE8E"/>
<stop offset="1" stop-color="#375DFB"/>
</linearGradient>
<linearGradient id="paint7_linear_5_23" x1="50.8546" y1="77.6443" x2="151.612" y2="170.581" gradientUnits="userSpaceOnUse">
<stop stop-color="#00BE8E"/>
<stop offset="0.280919" stop-color="#00BE8E"/>
<stop offset="1" stop-color="#375DFB"/>
</linearGradient>
<linearGradient id="paint8_linear_5_23" x1="50.8546" y1="77.6444" x2="151.612" y2="170.581" gradientUnits="userSpaceOnUse">
<stop stop-color="#00BE8E"/>
<stop offset="0.280919" stop-color="#00BE8E"/>
<stop offset="1" stop-color="#375DFB"/>
</linearGradient>
<linearGradient id="paint9_linear_5_23" x1="50.8546" y1="77.6443" x2="151.612" y2="170.581" gradientUnits="userSpaceOnUse">
<stop stop-color="#00BE8E"/>
<stop offset="0.280919" stop-color="#00BE8E"/>
<stop offset="1" stop-color="#375DFB"/>
</linearGradient>
<linearGradient id="paint10_linear_5_23" x1="80.2671" y1="42.9733" x2="176.535" y2="178.023" gradientUnits="userSpaceOnUse">
<stop stop-color="#00BE8E"/>
<stop offset="0.280919" stop-color="#00BE8E"/>
<stop offset="1" stop-color="#375DFB"/>
</linearGradient>
<linearGradient id="paint11_linear_5_23" x1="80.267" y1="42.9733" x2="176.535" y2="178.023" gradientUnits="userSpaceOnUse">
<stop stop-color="#00BE8E"/>
<stop offset="0.280919" stop-color="#00BE8E"/>
<stop offset="1" stop-color="#375DFB"/>
</linearGradient>
<linearGradient id="paint12_linear_5_23" x1="80.267" y1="42.9733" x2="176.535" y2="178.023" gradientUnits="userSpaceOnUse">
<stop stop-color="#00BE8E"/>
<stop offset="0.280919" stop-color="#00BE8E"/>
<stop offset="1" stop-color="#375DFB"/>
</linearGradient>
<linearGradient id="paint13_linear_5_23" x1="80.2672" y1="42.9733" x2="176.535" y2="178.023" gradientUnits="userSpaceOnUse">
<stop stop-color="#00BE8E"/>
<stop offset="0.280919" stop-color="#00BE8E"/>
<stop offset="1" stop-color="#375DFB"/>
</linearGradient>
<linearGradient id="paint14_linear_5_23" x1="80.2672" y1="42.9733" x2="176.535" y2="178.023" gradientUnits="userSpaceOnUse">
<stop stop-color="#00BE8E"/>
<stop offset="0.280919" stop-color="#00BE8E"/>
<stop offset="1" stop-color="#375DFB"/>
</linearGradient>
<linearGradient id="paint15_linear_5_23" x1="80.267" y1="42.9733" x2="176.535" y2="178.023" gradientUnits="userSpaceOnUse">
<stop stop-color="#00BE8E"/>
<stop offset="0.280919" stop-color="#00BE8E"/>
<stop offset="1" stop-color="#375DFB"/>
</linearGradient>
<linearGradient id="paint16_linear_5_23" x1="80.2671" y1="42.9733" x2="176.535" y2="178.023" gradientUnits="userSpaceOnUse">
<stop stop-color="#00BE8E"/>
<stop offset="0.280919" stop-color="#00BE8E"/>
<stop offset="1" stop-color="#375DFB"/>
</linearGradient>
<linearGradient id="paint17_linear_5_23" x1="80.2671" y1="42.9733" x2="176.535" y2="178.023" gradientUnits="userSpaceOnUse">
<stop stop-color="#00BE8E"/>
<stop offset="0.280919" stop-color="#00BE8E"/>
<stop offset="1" stop-color="#375DFB"/>
</linearGradient>
<linearGradient id="paint18_linear_5_23" x1="80.2672" y1="42.9733" x2="176.535" y2="178.023" gradientUnits="userSpaceOnUse">
<stop stop-color="#00BE8E"/>
<stop offset="0.280919" stop-color="#00BE8E"/>
<stop offset="1" stop-color="#375DFB"/>
</linearGradient>
<linearGradient id="paint19_linear_5_23" x1="80.2672" y1="42.9733" x2="176.535" y2="178.023" gradientUnits="userSpaceOnUse">
<stop stop-color="#00BE8E"/>
<stop offset="0.280919" stop-color="#00BE8E"/>
<stop offset="1" stop-color="#375DFB"/>
</linearGradient>
<linearGradient id="paint20_linear_5_23" x1="80.2671" y1="42.9733" x2="176.535" y2="178.023" gradientUnits="userSpaceOnUse">
<stop stop-color="#00BE8E"/>
<stop offset="0.280919" stop-color="#00BE8E"/>
<stop offset="1" stop-color="#375DFB"/>
</linearGradient>
<linearGradient id="paint21_linear_5_23" x1="80.2671" y1="42.9733" x2="176.535" y2="178.023" gradientUnits="userSpaceOnUse">
<stop stop-color="#00BE8E"/>
<stop offset="0.280919" stop-color="#00BE8E"/>
<stop offset="1" stop-color="#375DFB"/>
</linearGradient>
<linearGradient id="paint22_linear_5_23" x1="80.2671" y1="42.9733" x2="176.535" y2="178.023" gradientUnits="userSpaceOnUse">
<stop stop-color="#00BE8E"/>
<stop offset="0.280919" stop-color="#00BE8E"/>
<stop offset="1" stop-color="#375DFB"/>
</linearGradient>
<linearGradient id="paint23_linear_5_23" x1="80.267" y1="42.9733" x2="176.535" y2="178.023" gradientUnits="userSpaceOnUse">
<stop stop-color="#00BE8E"/>
<stop offset="0.280919" stop-color="#00BE8E"/>
<stop offset="1" stop-color="#375DFB"/>
</linearGradient>
<linearGradient id="paint24_linear_5_23" x1="80.2671" y1="42.9733" x2="176.535" y2="178.023" gradientUnits="userSpaceOnUse">
<stop stop-color="#00BE8E"/>
<stop offset="0.280919" stop-color="#00BE8E"/>
<stop offset="1" stop-color="#375DFB"/>
</linearGradient>
<linearGradient id="paint25_linear_5_23" x1="80.2671" y1="42.9733" x2="176.535" y2="178.023" gradientUnits="userSpaceOnUse">
<stop stop-color="#00BE8E"/>
<stop offset="0.280919" stop-color="#00BE8E"/>
<stop offset="1" stop-color="#375DFB"/>
</linearGradient>
<linearGradient id="paint26_linear_5_23" x1="80.2671" y1="42.9733" x2="176.535" y2="178.023" gradientUnits="userSpaceOnUse">
<stop stop-color="#00BE8E"/>
<stop offset="0.280919" stop-color="#00BE8E"/>
<stop offset="1" stop-color="#375DFB"/>
</linearGradient>
</defs>
</svg>
