<svg width="250" height="250" viewBox="0 0 250 250" fill="none" xmlns="http://www.w3.org/2000/svg">
<rect width="250" height="250" rx="60" fill="#95BF47"/>
<path d="M152.61 59.1212C152.61 59.1212 150.669 59.6761 147.478 60.647C146.924 58.8438 146.091 56.7633 144.982 54.5441C141.376 47.609 135.966 43.864 129.586 43.864C129.17 43.864 128.754 43.864 128.199 44.0027C128.06 43.7253 127.783 43.5866 127.644 43.3092C124.87 40.2578 121.264 38.8707 116.964 39.0094C108.642 39.2868 100.32 45.251 93.6621 55.9311C88.9462 63.421 85.3399 72.8527 84.369 80.204C74.7986 83.1167 68.1409 85.1972 68.0022 85.3359C63.1476 86.8617 63.0089 87.0004 62.4541 91.5775C61.6219 95.0451 49 192.83 49 192.83L153.859 211V58.8438C153.304 58.9825 152.888 58.9825 152.61 59.1212ZM128.338 66.6112C122.789 68.2756 116.687 70.2174 110.722 72.0205C112.387 65.5015 115.716 58.9825 119.599 54.6828C121.125 53.1571 123.206 51.3539 125.564 50.2443C127.921 55.2376 128.476 62.034 128.338 66.6112ZM117.103 44.5575C119.045 44.5575 120.709 44.9736 122.096 45.8058C119.877 46.9155 117.658 48.7186 115.577 50.7991C110.306 56.4859 106.284 65.3628 104.62 73.8237C99.6262 75.3494 94.633 76.8751 90.0558 78.2621C92.9686 65.0854 104.203 44.9736 117.103 44.5575ZM100.875 120.844C101.429 129.721 124.87 131.662 126.257 152.606C127.228 169.112 117.519 180.347 103.51 181.179C86.5883 182.289 77.2952 172.302 77.2952 172.302L80.9015 157.045C80.9015 157.045 90.1945 164.119 97.6844 163.564C102.539 163.286 104.342 159.264 104.203 156.49C103.51 144.839 84.369 145.533 83.1207 126.392C82.0111 110.441 92.5524 94.2129 115.854 92.6871C124.87 92.1323 129.447 94.3516 129.447 94.3516L124.177 114.325C124.177 114.325 118.212 111.551 111.139 112.105C100.875 112.799 100.736 119.318 100.875 120.844ZM133.886 64.9467C133.886 60.7857 133.331 54.8215 131.389 49.8282C137.769 51.0765 140.821 58.1503 142.208 62.4501C139.711 63.1436 136.937 63.9758 133.886 64.9467Z" fill="white"/>
<path d="M157.326 210.445L200.879 199.626C200.879 199.626 182.154 72.9915 182.015 72.1593C181.877 71.3271 181.183 70.7723 180.49 70.7723C179.796 70.7723 167.59 70.4948 167.59 70.4948C167.59 70.4948 160.1 63.2823 157.326 60.5083V210.445Z" fill="white"/>
</svg>
